<?xml version="1.0" encoding="utf-8"?>
<!-- Generator: Adobe Illustrator 18.1.1, SVG Export Plug-In . SVG Version: 6.00 Build 0)  -->
<svg version="1.1" id="Layer_1" xmlns="http://www.w3.org/2000/svg" xmlns:xlink="http://www.w3.org/1999/xlink" x="0px" y="0px"
	 viewBox="0 0 591.8 65.2" enable-background="new 0 0 591.8 65.2" xml:space="preserve" fill="#FFFFFF">
<g>
	<path d="M24.1,0.1h5.2v50.6h-5.2V27.2H5.2v23.5H0V0.1h5.2V22h18.9V0.1z"/>
	<path d="M58.5,50.7h-3.9l-1.2-1.4c-1.4,0.9-3,1.4-4.6,1.4H44c-5.3,0-9.7-4.3-9.7-9.7c0-5.3,4.3-9.7,9.7-9.7h9.3v-4.8
		c0-2.4-2-4.5-4.5-4.5H44c-1.9,0-3.7,1.2-4.3,2.8l-4.5-2.2c1.5-3.2,4.9-5.8,8.8-5.8h4.8c5.4,0,9.7,4.4,9.7,9.7V50.7z M48.7,45.5
		c2.5,0,4.5-2,4.5-4.5v-4.5H44c-2.5,0-4.5,2-4.5,4.5c0,2.5,2,4.5,4.5,4.5H48.7z"/>
	<path d="M70.1,18.1c1.4-0.9,3-1.4,4.6-1.4h4.8v5l-4.8,0.1c-2.5,0-4.6,2-4.6,4.5v24.3h-5.2v-34h3.9L70.1,18.1z"/>
	<path d="M86.3,50.7V0.1h5.2v50.6H86.3z"/>
	<path d="M113,45.5c1.9,0,3.7-1.2,4.3-2.8l4.5,2.2c-1.5,3.2-4.8,5.8-8.8,5.8h-4.8c-5.3,0-9.7-4.4-9.7-9.7V27.7c0-5.3,4.4-11,9.7-11
		h4.8c5.4,0,9.8,4.4,9.8,9.7c0,5.4-4.4,9.7-9.8,9.7h-9.3V41c0,2.4,2.1,4.5,4.5,4.5H113z M108.2,21.9c-2.4,0-4.5,2-4.5,4.5V31h9.3
		c2.5,0,4.6-2,4.6-4.5s-2.1-4.5-4.6-4.5H108.2z"/>
	<path d="M148.4,16.7l-8.1,33.2c-0.2,1-0.6,3.2-1.5,6.5c-1.2,4.5-2.8,8.9-9.1,8.9l-3-0.1v-5l3-0.1c2.3,0,3-0.4,4.1-4.9
		c0.5-2.1,0.9-3.7,1.2-4.8l-8.1-33.6h5.2l5.6,23.1l5.6-23.1H148.4z"/>
	<path d="M177.9,45.6h13.8c0.3-0.1,4.5-0.2,6.9-2.7c1.2-1.2,1.7-2.7,1.7-4.6c0-3.9-5.1-7.1-10.5-10.6c-3.2-2-6.6-4.2-9.1-6.6
		c-3-2.7-4.3-5.4-4.3-8.3c0-4,1.5-7.2,4.5-9.5c2.7-2.1,6.6-3.3,10.8-3.3h4.9l5.1,0.1v5h-10c-3.1,0.1-5.8,0.9-7.6,2.3
		c-1.7,1.3-2.4,3-2.4,5.4c0,0.9,0.3,2.3,2.7,4.5c2.2,2.1,5.3,4.1,8.4,6c3.2,2,6.1,3.9,8.5,6.1c3,2.7,4.4,5.6,4.4,8.8
		c0.1,3.2-1.1,6-3.2,8.2c-3.9,3.9-9.5,4.2-10.6,4.2h-9.1l-4.8-0.1V45.6z"/>
	<path d="M225.6,45.5c1.9,0,3.6-1.2,4.2-2.8l4.5,2.2c-1.4,3.2-4.8,5.8-8.7,5.8h-4.8c-5.4,0-9.8-4.4-9.8-9.8V26.4
		c0-5.4,4.4-9.7,9.8-9.7h4.8c3.9,0,7.3,2.4,8.7,5.7l-4.5,2.3c-0.6-1.7-2.4-2.8-4.2-2.8h-4.8c-2.5,0-4.6,2-4.6,4.5v14.5
		c0,2.5,2.1,4.6,4.6,4.6H225.6z"/>
	<path d="M255.3,16.7c5.4,0,9.8,4.4,9.8,9.7v24.3h-5.3V26.4c0-2.5-2-4.5-4.5-4.5h-4.8c-2.4,0-4.5,2.2-4.5,4.5v24.3h-5.2V0.1h5.2
		v18.2c1.3-0.7,3-1.6,4.5-1.6H255.3z"/>
	<path d="M285.4,16.6c9.8,0,10.2,10.3,10.2,10.3v13.5c0,0-0.4,10.3-10.2,10.3h-3.6c0,0-10.6,0-10.6-10.3V26.9
		c0-10.3,10.6-10.3,10.6-10.3H285.4z M290.2,26.9c0-4.9-4.8-5.2-4.8-5.2h-3.6c-4.6,0-5.1,5.2-5.1,5.2v13.5c0,0,0.5,5.2,5.1,5.2h3.6
		c0,0,4.8-0.3,4.8-5.2V26.9z"/>
	<path d="M315.6,16.6c9.8,0,10.2,10.3,10.2,10.3v13.5c0,0-0.4,10.3-10.2,10.3H312c0,0-10.6,0-10.6-10.3V26.9
		c0-10.3,10.6-10.3,10.6-10.3H315.6z M320.3,26.9c0-4.9-4.8-5.2-4.8-5.2H312c-4.6,0-5.1,5.2-5.1,5.2v13.5c0,0,0.5,5.2,5.1,5.2h3.6
		c0,0,4.8-0.3,4.8-5.2V26.9z"/>
	<path d="M332.6,50.7V0.1h5.2v50.6H332.6z"/>
	<path d="M390.4,0.1h5.3l-11.9,29h-0.1v21.6h-5.2V29.1h-0.1l-11.9-29h5.3l9.3,22.7L390.4,0.1z"/>
	<path d="M410.2,45.5c1.9,0,3.7-1.2,4.3-2.8l4.5,2.2c-1.5,3.2-4.8,5.8-8.8,5.8h-4.8c-5.3,0-9.7-4.4-9.7-9.7V27.7
		c0-5.3,4.4-11,9.7-11h4.8c5.4,0,9.8,4.4,9.8,9.7c0,5.4-4.4,9.7-9.8,9.7H401V41c0,2.4,2.1,4.5,4.5,4.5H410.2z M405.5,21.9
		c-2.4,0-4.5,2-4.5,4.5V31h9.3c2.5,0,4.6-2,4.6-4.5s-2.1-4.5-4.6-4.5H405.5z"/>
	<path d="M449.9,50.7H446l-1.2-1.4c-1.4,0.9-3,1.4-4.6,1.4h-4.8c-5.3,0-9.7-4.3-9.7-9.7c0-5.3,4.3-9.7,9.7-9.7h9.3v-4.8
		c0-2.4-2-4.5-4.5-4.5h-4.8c-1.9,0-3.7,1.2-4.3,2.8l-4.5-2.2c1.5-3.2,4.9-5.8,8.8-5.8h4.8c5.4,0,9.7,4.4,9.7,9.7V50.7z M440.2,45.5
		c2.5,0,4.5-2,4.5-4.5v-4.5h-9.3c-2.5,0-4.5,2-4.5,4.5c0,2.5,2,4.5,4.5,4.5H440.2z"/>
	<path d="M461.6,18.1c1.4-0.9,3-1.4,4.6-1.4h4.8v5l-4.8,0.1c-2.5,0-4.6,2-4.6,4.5v24.3h-5.2v-34h3.9L461.6,18.1z"/>
	<path d="M491.4,16.7c5.4,0,9.7,4.4,9.7,9.7v14.5c0,5.4-4.3,9.8-9.7,9.8h-4.8c-1.7,0-3.2-0.6-4.5-1.4l-1.3,1.4h-3.9V0.1h5.2v18.2
		c1.3-0.7,3-1.6,4.5-1.6H491.4z M491.4,45.5c2.5,0,4.5-2.1,4.5-4.6V26.4c0-2.5-2-4.5-4.5-4.5h-4.8c-2.5,0-4.5,2.2-4.5,4.5v14.5
		c0,2.5,2,4.6,4.5,4.6H491.4z"/>
	<path d="M521.1,16.6c9.8,0,10.2,10.3,10.2,10.3v13.5c0,0-0.4,10.3-10.2,10.3h-3.6c0,0-10.6,0-10.6-10.3V26.9
		c0-10.3,10.6-10.3,10.6-10.3H521.1z M525.8,26.9c0-4.9-4.8-5.2-4.8-5.2h-3.6c-4.6,0-5.1,5.2-5.1,5.2v13.5c0,0,0.5,5.2,5.1,5.2h3.6
		c0,0,4.8-0.3,4.8-5.2V26.9z"/>
	<path d="M551.2,16.6c9.8,0,10.2,10.3,10.2,10.3v13.5c0,0-0.4,10.3-10.2,10.3h-3.6c0,0-10.6,0-10.6-10.3V26.9
		c0-10.3,10.6-10.3,10.6-10.3H551.2z M556,26.9c0-4.9-4.8-5.2-4.8-5.2h-3.6c-4.6,0-5.1,5.2-5.1,5.2v13.5c0,0,0.5,5.2,5.1,5.2h3.6
		c0,0,4.8-0.3,4.8-5.2V26.9z"/>
	<path d="M585.8,50.7l-9.6-16.6l-3.5,3.8v12.7h-5.2V0.1h5.2v30.1l12-13.4h7L579.9,30l12,20.7H585.8z"/>
</g>
</svg>
